<?xml version="1.0" encoding="utf-8"?>
<!-- Generator: Adobe Illustrator 15.1.0, SVG Export Plug-In . SVG Version: 6.00 Build 0)  -->
<!DOCTYPE svg PUBLIC "-//W3C//DTD SVG 1.1//EN" "http://www.w3.org/Graphics/SVG/1.1/DTD/svg11.dtd">
<svg version="1.1" id="Layer_1" xmlns="http://www.w3.org/2000/svg" xmlns:xlink="http://www.w3.org/1999/xlink" x="0px" y="0px"
	 width="792px" height="612px" viewBox="0 0 792 612" enable-background="new 0 0 792 612" xml:space="preserve">
<path fill-rule="evenodd" clip-rule="evenodd" stroke="#000000" stroke-width="3" stroke-linecap="round" stroke-linejoin="round" stroke-miterlimit="22.9256" d="
	M421.901,498.448c5.283,8.404,12.449,17.794,21.46,24.759c9.01,6.966,19.863,11.51,29.063,14.841
	c9.201,3.332,16.75,5.452,19.627,5.528c2.875,0.075,1.08-1.894,0.362-5.452c-0.719-3.559-0.358-8.708,0.818-12.494
	c1.178-3.785,3.172-6.208,7.496-6.965c4.324-0.758,10.978,0.151,17.615,2.498c6.638,2.348,13.26,6.134,20.81,8.102
	c7.55,1.969,16.029,2.12,22.554,0.908c6.524-1.211,11.097-3.785,12.096-5.148s-1.573-1.514-3.442-3.71
	c-1.868-2.195-3.034-6.436-0.964-8.783c2.07-2.347,7.376-2.802,13.888-2.877c6.513-0.076,14.232,0.227,20.368,0.075
	c6.135-0.151,10.685-0.757,10.922-1.741c0.238-0.984-3.836-2.348-5.401-4.543c-1.566-2.196-0.625-5.225,2.567-6.36
	c3.193-1.137,8.637-0.379,13.784-0.228s9.998-0.303,15.321-2.423c5.324-2.12,11.12-5.906,16.021-10.979
	c4.9-5.073,8.909-11.434,9.609-13.251c0.701-1.816-1.902,0.908-7.598,2.348c-5.694,1.438-14.479,1.59-21.345-0.682
	s-11.812-6.966-16.319-10.146s-8.579-4.846-14.77-6.512s-14.502-3.331-22.117-6.209c-7.615-2.877-14.537-6.966-16.465-10.601
	c-1.93-3.635,1.134-6.814,9.732-10.677c8.599-3.861,22.732-8.404,31.177-12.039c8.445-3.634,11.2-6.359,11.516-7.571
	c0.316-1.211-1.806-0.908-0.271-2.953c1.537-2.044,6.734-6.436,13.741-10.146c7.007-3.711,15.823-6.739,23.076-12.19
	c7.253-5.452,12.943-13.327,14.182-15.901c1.24-2.574-1.97,0.151-7.634-1.211c-5.664-1.363-13.781-6.815-16.608-11.358
	s-0.365-8.178,3.245-12.871c3.611-4.695,8.369-10.45,12.701-15.371c4.333-4.923,8.238-9.012,10.464-11.661
	c2.226-2.65,2.769-3.861,1.938-4.013c-0.832-0.151-3.037,0.756-5.757,0.188c-2.721-0.568-5.953-2.611-7.365-5.073
	c-1.411-2.461-1.001-5.338,1.115-8.518c2.118-3.18,5.941-6.663,8.626-9.805c2.686-3.143,4.23-5.944,5.019-8.822
	c0.789-2.877,0.821-5.83,0.643-6.815c-0.178-0.984-0.567,0-1.899,0.569c-1.331,0.567-3.604,0.719-4.729-0.19
	s-1.104-2.877-0.093-5.338c1.011-2.461,3.013-5.414,6.405-11.055c3.395-5.641,8.181-13.97,11.917-19.875
	c3.737-5.906,6.426-9.389,5.871-10.638c-0.554-1.25-4.351-0.266-9.943,2.196c-5.592,2.461-12.979,6.397-18.731,9.616
	s-9.867,5.716-12.91,6.966c-3.043,1.25-5.012,1.25-5.796,0.303c-0.785-0.946-0.386-2.839,0.043-3.899
	c0.428-1.061,0.884-1.288-0.024-1.288s-3.183,0.227-6.114,1.628c-2.93,1.4-6.517,3.975-10.214,6.322
	c-3.698,2.347-7.508,4.467-10.236,4.657c-2.727,0.189-4.374-1.552-4.657-3.331c-0.283-1.78,0.797-3.597,1.946-4.885
	c1.15-1.287,2.369-2.044,1.16-2.233c-1.209-0.189-4.849,0.189-9.943,2.272c-5.097,2.082-11.649,5.868-17.916,11.13
	c-6.267,5.262-12.247,12.001-15.997,15.711c-3.752,3.71-5.273,4.392-7.012,4.089c-1.738-0.303-3.692-1.591-4.879-3.862
	s-1.605-5.527-0.96-9.124c0.645-3.597,2.354-7.535,2.94-9.238c0.586-1.704,0.051-1.173-1.853-0.227
	c-1.903,0.946-5.174,2.309-9.216,4.959c-4.043,2.65-8.856,6.587-12.946,10.184c-4.091,3.597-7.458,6.852-9.208,7.647
	c-1.75,0.795-1.884-0.871-1.68-2.196c0.204-1.325,0.745-2.309-0.397-1.741c-1.142,0.567-3.967,2.688-7.614,7.344
	c-3.647,4.656-8.118,11.85-11.627,17.642c-3.51,5.793-6.058,10.184-8.835,14.916c-2.779,4.732-5.787,9.806-10.073,14.009
	c-4.286,4.202-9.851,7.533-14.488,9.313c-4.639,1.779-8.352,2.006-10.374,0c-2.022-2.007-2.354-6.247-2.568-10.865
	c-0.215-4.62-0.312-9.616,1.278-16.432c1.589-6.814,4.863-15.446,8.057-23.51c3.192-8.064,6.304-15.56,10.245-22.867
	c3.941-7.307,8.714-14.423,11.608-19.384c2.895-4.959,3.909-7.76,3.841-8.441c-0.068-0.682-1.22,0.756-3.002,1.06
	c-1.783,0.303-4.197-0.53-3.14-3.748c1.058-3.218,5.587-8.821,8.323-13.25c2.735-4.43,3.681-7.686,4.284-10.903
	c0.603-3.218,0.865-6.398,0.687-7.382s-0.798,0.227-2.049,0.378c-1.251,0.151-3.134-0.756-3.519-3.634
	c-0.385-2.877,0.728-7.723,1.582-13.061c0.854-5.338,1.447-11.169,1.911-15.523c0.465-4.354,0.799-7.23,0.579-7.95
	c-0.219-0.72-0.992,0.719-4.467,3.483c-3.476,2.763-9.654,6.853-16.891,10.79c-7.236,3.937-15.531,7.723-20.202,9.01
	c-4.67,1.287-5.718,0.076-6.306-4.997c-0.588-5.073-0.717-14.008-0.346-23.624c0.37-9.616,1.24-19.914,0.73-28.583
	c-0.511-8.669-2.402-15.711-3.317-18.589s-0.854-1.59-1.941,0.947c-1.088,2.537-3.325,6.322-6.648,9.048
	c-3.324,2.727-7.733,4.392-10.978,3.256c-3.243-1.136-5.319-5.073-6.672-9.464s-1.981-9.238-3.376-13.251s-3.556-7.193-4.567-8.177
	s-0.873,0.227-1.526,1.098c-0.653,0.871-2.097,1.4-3.41,0.34c-1.314-1.06-2.496-3.71-3.301-6.361c-0.804-2.65-1.229-5.3-3.1-10.751
	s-5.188-13.705-7.645-21.048c-6.713-20.085-2.953-20.082-9.694,0c-2.467,7.344-5.796,15.597-7.675,21.048s-2.308,8.102-3.116,10.751
	c-0.808,2.65-1.994,5.301-3.309,6.361c-1.315,1.06-2.758,0.53-3.411-0.34c-0.651-0.871-0.511-2.083-1.524-1.098
	c-1.013,0.984-3.178,4.164-4.579,8.177s-2.036,8.859-3.396,13.251c-1.359,4.392-3.441,8.329-6.687,9.464
	c-3.245,1.136-7.652-0.529-10.973-3.256c-3.319-2.726-5.551-6.511-6.635-9.048c-1.084-2.537-1.021-3.824-1.94-0.947
	s-2.821,9.919-3.344,18.589c-0.523,8.669,0.332,18.967,0.688,28.583c0.357,9.616,0.214,18.551-0.381,23.624
	c-0.595,5.073-1.644,6.284-6.313,4.997c-4.669-1.287-12.958-5.073-20.188-9.01c-7.231-3.938-13.403-8.027-16.874-10.79
	c-3.471-2.764-4.243-4.203-4.463-3.483c-0.22,0.719,0.11,3.596,0.567,7.95c0.458,4.354,1.043,10.185,1.889,15.523
	s1.952,10.184,1.563,13.061c-0.389,2.878-2.273,3.785-3.524,3.634c-1.25-0.151-1.868-1.362-2.048-0.378
	c-0.179,0.984,0.077,4.164,0.676,7.382c0.599,3.218,1.538,6.474,4.268,10.903c2.729,4.43,7.251,10.033,8.303,13.25
	c1.052,3.218-1.362,4.051-3.145,3.748c-1.782-0.303-2.931-1.742-3-1.06c-0.07,0.681,0.941,3.482,3.827,8.441
	c2.888,4.96,7.649,12.077,11.581,19.384c3.931,7.307,7.031,14.803,10.211,22.867c3.182,8.064,6.443,16.696,8.022,23.51
	c1.58,6.815,1.476,11.812,1.254,16.432c-0.221,4.618-0.559,8.858-2.585,10.865c-2.025,2.006-5.737,1.779-10.374,0
	c-4.635-1.78-10.194-5.111-14.475-9.313c-4.28-4.203-7.281-9.276-10.053-14.009c-2.771-4.732-5.313-9.123-8.813-14.916
	c-3.5-5.792-7.96-12.986-11.601-17.642c-3.641-4.657-6.462-6.777-7.604-7.344c-1.141-0.568-0.602,0.416-0.4,1.741
	c0.203,1.325,0.067,2.991-1.683,2.196c-1.749-0.795-5.111-4.051-9.197-7.647c-4.085-3.597-8.893-7.534-12.931-10.184
	c-4.038-2.65-7.307-4.013-9.208-4.959c-1.902-0.947-2.437-1.477-1.853,0.227c0.584,1.704,2.287,5.641,2.927,9.238
	c0.641,3.597,0.217,6.852-0.973,9.124s-3.146,3.559-4.884,3.862c-1.739,0.302-3.26-0.379-7.006-4.089
	c-3.745-3.71-9.715-10.449-15.974-15.711c-6.259-5.263-12.807-9.048-17.899-11.13c-5.092-2.083-8.731-2.461-9.94-2.272
	c-1.209,0.189,0.008,0.946,1.157,2.233c1.148,1.288,2.225,3.105,1.939,4.885c-0.286,1.779-1.935,3.52-4.663,3.331
	c-2.728-0.189-6.534-2.31-10.229-4.657c-3.694-2.347-7.277-4.921-10.206-6.322c-2.929-1.401-5.202-1.628-6.111-1.628
	c-0.909,0-0.452,0.227-0.026,1.288c0.427,1.06,0.824,2.953,0.038,3.899c-0.786,0.947-2.754,0.947-5.795-0.303
	c-3.041-1.25-7.153-3.748-12.9-6.966s-13.13-7.155-18.718-9.616c-5.588-2.461-9.384-3.446-9.94-2.196
	c-0.557,1.249,2.127,4.732,5.855,10.638c3.729,5.906,8.502,14.234,11.887,19.875s5.383,8.594,6.39,11.055
	c1.007,2.461,1.027,4.429-0.101,5.338c-1.127,0.909-3.4,0.757-4.73,0.19c-1.331-0.569-1.719-1.553-1.899-0.569
	c-0.18,0.985-0.152,3.938,0.632,6.815c0.785,2.878,2.326,5.679,5.006,8.822c2.68,3.142,6.499,6.625,8.612,9.805
	c2.112,3.18,2.518,6.057,1.104,8.518c-1.416,2.461-4.652,4.504-7.373,5.073c-2.72,0.567-4.925-0.34-5.756-0.188
	s-0.29,1.362,1.931,4.013c2.221,2.649,6.121,6.738,10.447,11.661c4.325,4.921,9.075,10.676,12.678,15.371
	c3.604,4.693,6.061,8.328,3.228,12.871c-2.835,4.543-10.96,9.995-16.626,11.358c-5.667,1.362-8.872-1.363-7.636,1.211
	s6.914,10.449,14.159,15.901c7.245,5.451,16.057,8.479,23.058,12.19c7.001,3.71,12.192,8.102,13.727,10.146
	c1.533,2.045-0.589,1.742-0.275,2.953c0.314,1.212,3.065,3.938,11.505,7.571c8.439,3.635,22.566,8.178,31.159,12.039
	c8.593,3.862,11.651,7.042,9.717,10.677c-1.933,3.635-8.861,7.724-16.481,10.601c-7.621,2.878-15.933,4.543-22.126,6.209
	c-6.194,1.666-10.266,3.331-14.778,6.512c-4.514,3.181-9.466,7.875-16.335,10.146s-15.654,2.12-21.347,0.682
	c-5.692-1.439-8.292-4.164-7.594-2.348c0.698,1.817,4.696,8.178,9.59,13.251c4.895,5.072,10.685,8.858,16.006,10.979
	c5.32,2.12,10.17,2.574,15.317,2.423s10.592-0.909,13.784,0.228c3.19,1.136,4.127,4.164,2.559,6.36
	c-1.57,2.195-5.645,3.559-5.409,4.543s4.786,1.59,10.92,1.741s13.855-0.151,20.367-0.075c6.513,0.075,11.817,0.53,13.883,2.877
	c2.067,2.348,0.896,6.588-0.976,8.783c-1.873,2.196-4.445,2.347-3.448,3.71c0.998,1.363,5.565,3.938,12.088,5.148
	c6.523,1.212,15.001,1.061,22.555-0.908c7.553-1.968,14.181-5.754,20.821-8.102c6.641-2.347,13.296-3.256,17.619-2.498
	c4.323,0.757,6.314,3.18,7.486,6.965c1.171,3.786,1.523,8.936,0.8,12.494s-2.522,5.527,0.355,5.452
	c2.876-0.076,10.428-2.196,19.634-5.528c9.207-3.331,20.066-7.875,29.085-14.841c9.021-6.965,16.201-16.354,21.497-24.759
	c5.296-8.405,8.908-15.568,14.046-19.763c12.475-10.182,2.127,66.178,1.257,74.732c-1.029,10.112-5.148,18.285-3.824,21.389
	c1.326,3.104,7.081,0.984,12.267,1.022c5.187,0.037,9.806,2.233,10.941-1.591c1.136-3.823-1.211-13.666-2.574-28.924
	c-1.363-15.257-1.742-35.926-1.099-50.804c0.356-8.245,0.637-13.457,2.204-15.651C407.656,473.628,412.914,484.15,421.901,498.448z"
	/>
</svg>
